<svg xmlns="http://www.w3.org/2000/svg" viewBox="0 0 1000 800">
<defs>
<radialGradient id="bgGrad" cx="50%" cy="50%" r="50%"><stop offset="0%" stop-color="#111820"/><stop offset="50%" stop-color="#0a0e14"/><stop offset="100%" stop-color="#06080c"/></radialGradient>
<filter id="nodeGlow" x="-50%" y="-50%" width="200%" height="200%"><feGaussianBlur stdDeviation="6" result="blur"/><feMerge><feMergeNode in="blur"/><feMergeNode in="SourceGraphic"/></feMerge></filter>
<filter id="softGlow" x="-50%" y="-50%" width="200%" height="200%"><feGaussianBlur stdDeviation="12"/></filter>
<filter id="churnPulse" x="-50%" y="-50%" width="200%" height="200%"><feGaussianBlur stdDeviation="4" result="blur"/><feMerge><feMergeNode in="blur"/><feMergeNode in="SourceGraphic"/></feMerge></filter>
</defs>
<rect width="1000" height="800" fill="url(#bgGrad)"/>
<circle cx="971.4" cy="53.4" r="0.9" fill="#c9d1d9" opacity="0.4"/>
<circle cx="514.2" cy="732.6" r="0.7" fill="#c9d1d9" opacity="0.3"/>
<circle cx="918.2" cy="658.1" r="0.8" fill="#c9d1d9" opacity="0.1"/>
<circle cx="956.8" cy="164.7" r="1.1" fill="#c9d1d9" opacity="0.4"/>
<circle cx="183.7" cy="193.9" r="1.0" fill="#c9d1d9" opacity="0.1"/>
<circle cx="636.9" cy="438.2" r="0.5" fill="#c9d1d9" opacity="0.1"/>
<circle cx="563.4" cy="679.3" r="0.9" fill="#c9d1d9" opacity="0.2"/>
<circle cx="774.5" cy="61.8" r="0.6" fill="#c9d1d9" opacity="0.5"/>
<circle cx="461.4" cy="616.8" r="0.7" fill="#c9d1d9" opacity="0.2"/>
<circle cx="113.3" cy="25.3" r="0.5" fill="#c9d1d9" opacity="0.4"/>
<circle cx="565.5" cy="679.4" r="0.3" fill="#c9d1d9" opacity="0.4"/>
<circle cx="291.4" cy="625.6" r="0.5" fill="#c9d1d9" opacity="0.5"/>
<circle cx="168.8" cy="628.6" r="0.6" fill="#c9d1d9" opacity="0.4"/>
<circle cx="181.3" cy="778.0" r="0.7" fill="#c9d1d9" opacity="0.4"/>
<circle cx="823.5" cy="10.5" r="1.1" fill="#c9d1d9" opacity="0.4"/>
<circle cx="974.1" cy="716.4" r="0.3" fill="#c9d1d9" opacity="0.4"/>
<circle cx="773.3" cy="132.0" r="1.0" fill="#c9d1d9" opacity="0.4"/>
<circle cx="899.5" cy="616.4" r="0.9" fill="#c9d1d9" opacity="0.4"/>
<circle cx="344.4" cy="130.9" r="0.5" fill="#c9d1d9" opacity="0.3"/>
<circle cx="964.4" cy="376.3" r="0.9" fill="#c9d1d9" opacity="0.1"/>
<circle cx="28.3" cy="618.8" r="0.6" fill="#c9d1d9" opacity="0.1"/>
<circle cx="263.3" cy="399.7" r="0.9" fill="#c9d1d9" opacity="0.2"/>
<circle cx="758.1" cy="551.6" r="0.5" fill="#c9d1d9" opacity="0.4"/>
<circle cx="139.8" cy="215.4" r="0.8" fill="#c9d1d9" opacity="0.2"/>
<circle cx="459.9" cy="118.1" r="1.1" fill="#c9d1d9" opacity="0.4"/>
<circle cx="852.3" cy="541.8" r="1.2" fill="#c9d1d9" opacity="0.5"/>
<circle cx="628.3" cy="508.9" r="1.1" fill="#c9d1d9" opacity="0.4"/>
<circle cx="552.6" cy="309.7" r="0.7" fill="#c9d1d9" opacity="0.4"/>
<circle cx="333.8" cy="80.3" r="0.6" fill="#c9d1d9" opacity="0.2"/>
<circle cx="819.0" cy="445.5" r="1.0" fill="#c9d1d9" opacity="0.1"/>
<circle cx="217.6" cy="186.6" r="0.8" fill="#c9d1d9" opacity="0.5"/>
<circle cx="93.8" cy="455.5" r="0.3" fill="#c9d1d9" opacity="0.3"/>
<circle cx="307.8" cy="170.0" r="0.4" fill="#c9d1d9" opacity="0.3"/>
<circle cx="695.2" cy="585.0" r="0.7" fill="#c9d1d9" opacity="0.2"/>
<circle cx="369.7" cy="49.0" r="0.8" fill="#c9d1d9" opacity="0.3"/>
<circle cx="221.9" cy="686.5" r="1.0" fill="#c9d1d9" opacity="0.5"/>
<circle cx="607.2" cy="427.3" r="1.1" fill="#c9d1d9" opacity="0.3"/>
<circle cx="808.2" cy="433.1" r="1.1" fill="#c9d1d9" opacity="0.5"/>
<circle cx="310.9" cy="205.7" r="0.9" fill="#c9d1d9" opacity="0.2"/>
<circle cx="159.0" cy="755.2" r="1.0" fill="#c9d1d9" opacity="0.1"/>
<circle cx="225.9" cy="704.4" r="0.5" fill="#c9d1d9" opacity="0.3"/>
<circle cx="489.4" cy="452.3" r="0.4" fill="#c9d1d9" opacity="0.5"/>
<circle cx="624.6" cy="308.5" r="0.8" fill="#c9d1d9" opacity="0.2"/>
<circle cx="383.6" cy="733.5" r="0.7" fill="#c9d1d9" opacity="0.3"/>
<circle cx="905.5" cy="777.1" r="0.8" fill="#c9d1d9" opacity="0.4"/>
<circle cx="525.0" cy="361.7" r="0.4" fill="#c9d1d9" opacity="0.3"/>
<circle cx="567.7" cy="608.0" r="0.6" fill="#c9d1d9" opacity="0.2"/>
<circle cx="412.6" cy="515.8" r="1.1" fill="#c9d1d9" opacity="0.5"/>
<circle cx="679.6" cy="622.3" r="0.7" fill="#c9d1d9" opacity="0.2"/>
<circle cx="472.9" cy="729.2" r="1.0" fill="#c9d1d9" opacity="0.2"/>
<circle cx="22.8" cy="786.8" r="0.5" fill="#c9d1d9" opacity="0.1"/>
<circle cx="323.5" cy="402.4" r="0.7" fill="#c9d1d9" opacity="0.2"/>
<circle cx="490.2" cy="722.3" r="0.9" fill="#c9d1d9" opacity="0.2"/>
<circle cx="132.8" cy="769.9" r="0.9" fill="#c9d1d9" opacity="0.2"/>
<circle cx="443.7" cy="529.9" r="1.1" fill="#c9d1d9" opacity="0.4"/>
<circle cx="7.3" cy="297.5" r="0.5" fill="#c9d1d9" opacity="0.2"/>
<circle cx="853.8" cy="544.4" r="0.6" fill="#c9d1d9" opacity="0.2"/>
<circle cx="588.6" cy="98.1" r="0.5" fill="#c9d1d9" opacity="0.5"/>
<circle cx="948.6" cy="514.0" r="0.8" fill="#c9d1d9" opacity="0.3"/>
<circle cx="68.3" cy="396.5" r="0.7" fill="#c9d1d9" opacity="0.3"/>
<circle cx="500.0" cy="400.0" r="100.0" fill="none" stroke="#30363d" stroke-width="0.5" opacity="0.3"/>
<circle cx="500.0" cy="400.0" r="173.3" fill="none" stroke="#30363d" stroke-width="0.5" opacity="0.3"/>
<circle cx="500.0" cy="400.0" r="246.7" fill="none" stroke="#30363d" stroke-width="0.5" opacity="0.3"/>
<circle cx="500.0" cy="400.0" r="320.0" fill="none" stroke="#30363d" stroke-width="0.5" opacity="0.3"/>
<text x="465.7" y="306.1" font-family="monospace" font-size="8" font-weight="600" fill="#484f58" text-anchor="start" transform="rotate(-70 465.7 306.1)">Collectors</text>
<text x="440.6" y="237.2" font-family="monospace" font-size="8" font-weight="600" fill="#484f58" text-anchor="start" transform="rotate(-70 440.6 237.2)">Layout</text>
<text x="415.4" y="168.3" font-family="monospace" font-size="8" font-weight="600" fill="#484f58" text-anchor="start" transform="rotate(-70 415.4 168.3)">Render</text>
<text x="390.3" y="99.4" font-family="monospace" font-size="8" font-weight="600" fill="#484f58" text-anchor="start" transform="rotate(-70 390.3 99.4)">Uncategorized</text>
<path data-from="canopy.aggregator" data-to="canopy" d="M410.6,707.2 Q499.2,402.7 587.2,100.4" fill="none" stroke="#58a6ff" stroke-width="0.8" opacity="0"/>
<path data-from="canopy.aggregator" data-to="canopy.collectors" d="M410.6,707.2 Q468.7,542.5 500.0,500.0" fill="none" stroke="#58a6ff" stroke-width="0.8" opacity="0"/>
<path data-from="canopy.collectors" data-to="canopy" d="M500.0,500.0 Q530.5,330.1 587.2,100.4" fill="none" stroke="#58a6ff" stroke-width="0.8" opacity="0"/>
<path data-from="canopy.layout" data-to="canopy" d="M399.6,541.3 Q495.4,344.6 587.2,100.4" fill="none" stroke="#58a6ff" stroke-width="0.8" opacity="0"/>
<path data-from="canopy.render" data-to="canopy.layout" d="M267.0,481.0 Q383.3,477.8 399.6,541.3" fill="none" stroke="#58a6ff" stroke-width="0.8" opacity="0"/>
<g data-module="canopy.config">
<circle cx="500.0" cy="354.2" r="77.5" fill="#d2992255" opacity="0.1" filter="url(#softGlow)"/>
<circle cx="501.0" cy="355.2" r="31.0" fill="#000000" opacity="0.3"/>
<circle cx="500.0" cy="354.2" r="31.0" fill="#d29922" filter="url(#nodeGlow)"/>
<circle cx="500.0" cy="344.9" r="18.6" fill="#e3b341" opacity="0.15"/>
<circle cx="495.3" cy="343.3" r="6.2" fill="#ffffff" opacity="0.08"/>
<circle cx="499.2" cy="369.4" r="2.1" fill="#1b1f23" opacity="0.7"/>
<circle cx="500.0" cy="352.6" r="1.7" fill="#1b1f23" opacity="0.7"/>
<text x="500.0" y="354.2" font-family="monospace" font-size="11" font-weight="700" fill="#c9d1d9" text-anchor="middle" dy="0.35em">config</text>
<text x="500.0" y="399.2" font-family="monospace" font-size="7" fill="#484f58" text-anchor="middle" dy="0.35em">159 loc</text>
</g>
<g data-module="canopy.cli">
<circle cx="545.8" cy="400.0" r="77.5" fill="#2ea04355" opacity="0.1" filter="url(#softGlow)"/>
<circle cx="546.8" cy="401.0" r="31.0" fill="#000000" opacity="0.3"/>
<circle cx="545.8" cy="400.0" r="31.0" fill="#2ea043" filter="url(#nodeGlow)"/>
<circle cx="545.8" cy="390.7" r="18.6" fill="#56d364" opacity="0.15"/>
<circle cx="541.2" cy="389.2" r="6.2" fill="#ffffff" opacity="0.08"/>
<text x="545.8" y="400.0" font-family="monospace" font-size="11" font-weight="700" fill="#c9d1d9" text-anchor="middle" dy="0.35em">cli</text>
<text x="545.8" y="445.0" font-family="monospace" font-size="7" fill="#484f58" text-anchor="middle" dy="0.35em">110 loc</text>
</g>
<g data-module="canopy.models">
<circle cx="500.0" cy="445.8" r="77.5" fill="#2ea04355" opacity="0.1" filter="url(#softGlow)"/>
<circle cx="501.0" cy="446.8" r="31.0" fill="#000000" opacity="0.3"/>
<circle cx="500.0" cy="445.8" r="31.0" fill="#2ea043" filter="url(#nodeGlow)"/>
<circle cx="500.0" cy="436.5" r="18.6" fill="#56d364" opacity="0.15"/>
<circle cx="495.3" cy="435.0" r="6.2" fill="#ffffff" opacity="0.08"/>
<text x="500.0" y="445.8" font-family="monospace" font-size="11" font-weight="700" fill="#c9d1d9" text-anchor="middle" dy="0.35em">models</text>
<text x="500.0" y="490.8" font-family="monospace" font-size="7" fill="#484f58" text-anchor="middle" dy="0.35em">60 loc</text>
</g>
<g data-module="canopy.exceptions">
<circle cx="454.2" cy="400.0" r="77.5" fill="#2ea04355" opacity="0.1" filter="url(#softGlow)"/>
<circle cx="455.2" cy="401.0" r="31.0" fill="#000000" opacity="0.3"/>
<circle cx="454.2" cy="400.0" r="31.0" fill="#2ea043" filter="url(#nodeGlow)"/>
<circle cx="454.2" cy="390.7" r="18.6" fill="#56d364" opacity="0.15"/>
<circle cx="449.5" cy="389.2" r="6.2" fill="#ffffff" opacity="0.08"/>
<circle cx="471.1" cy="394.9" r="1.7" fill="#1b1f23" opacity="0.7"/>
<circle cx="470.6" cy="388.0" r="2.0" fill="#1b1f23" opacity="0.7"/>
<text x="454.2" y="400.0" font-family="monospace" font-size="11" font-weight="700" fill="#c9d1d9" text-anchor="middle" dy="0.35em">exception..</text>
<text x="454.2" y="445.0" font-family="monospace" font-size="7" fill="#484f58" text-anchor="middle" dy="0.35em">18 loc</text>
</g>
<g data-module="canopy.collectors">
<circle cx="500.0" cy="500.0" r="37.8" fill="#2ea04355" opacity="0.1" filter="url(#softGlow)"/>
<circle cx="501.0" cy="501.0" r="15.1" fill="#000000" opacity="0.3"/>
<circle cx="500.0" cy="500.0" r="15.1" fill="#2ea043" filter="url(#nodeGlow)"/>
<circle cx="500.0" cy="495.5" r="9.1" fill="#56d364" opacity="0.15"/>
<circle cx="497.7" cy="494.7" r="3.0" fill="#ffffff" opacity="0.08"/>
<circle cx="498.7" cy="499.6" r="2.9" fill="#1b1f23" opacity="0.7"/>
<circle cx="504.6" cy="496.7" r="1.7" fill="#1b1f23" opacity="0.7"/>
<circle cx="493.6" cy="504.6" r="2.8" fill="#1b1f23" opacity="0.7"/>
<circle cx="500.4" cy="504.7" r="2.9" fill="#1b1f23" opacity="0.7"/>
<circle cx="500.5" cy="498.8" r="2.8" fill="#1b1f23" opacity="0.7"/>
<circle cx="505.6" cy="493.9" r="2.7" fill="#1b1f23" opacity="0.7"/>
<text x="500.0" y="500.0" font-family="monospace" font-size="8" font-weight="600" fill="#c9d1d9" text-anchor="middle" dy="0.35em">collector..</text>
</g>
<g data-module="canopy.layout">
<circle cx="399.6" cy="541.3" r="37.2" fill="#2ea04355" opacity="0.1" filter="url(#softGlow)"/>
<circle cx="400.6" cy="542.3" r="14.9" fill="#000000" opacity="0.3"/>
<circle cx="399.6" cy="541.3" r="14.9" fill="#2ea043" filter="url(#nodeGlow)"/>
<circle cx="399.6" cy="536.8" r="8.9" fill="#56d364" opacity="0.15"/>
<circle cx="397.3" cy="536.1" r="3.0" fill="#ffffff" opacity="0.08"/>
<text x="399.6" y="541.3" font-family="monospace" font-size="7" font-weight="600" fill="#c9d1d9" text-anchor="middle" dy="0.35em">layout</text>
</g>
<g data-module="canopy.render">
<circle cx="267.0" cy="481.0" r="74.1" fill="#2ea04355" opacity="0.1" filter="url(#softGlow)"/>
<circle cx="268.0" cy="482.0" r="29.6" fill="#000000" opacity="0.3"/>
<circle cx="267.0" cy="481.0" r="29.6" fill="#2ea043" filter="url(#nodeGlow)"/>
<circle cx="267.0" cy="472.1" r="17.8" fill="#56d364" opacity="0.15"/>
<circle cx="262.6" cy="470.7" r="5.9" fill="#ffffff" opacity="0.08"/>
<circle cx="259.3" cy="478.8" r="2.1" fill="#1b1f23" opacity="0.7"/>
<circle cx="279.4" cy="485.8" r="1.5" fill="#1b1f23" opacity="0.7"/>
<text x="267.0" y="481.0" font-family="monospace" font-size="9" font-weight="600" fill="#c9d1d9" text-anchor="middle" dy="0.35em">render</text>
<text x="267.0" y="524.7" font-family="monospace" font-size="7" fill="#484f58" text-anchor="middle" dy="0.35em">1562 loc</text>
</g>
<g data-module="canopy.aggregator">
<circle cx="410.6" cy="707.2" r="28.6" fill="#d2992255" opacity="0.1" filter="url(#softGlow)"/>
<circle cx="411.6" cy="708.2" r="11.4" fill="#000000" opacity="0.3"/>
<circle cx="410.6" cy="707.2" r="11.4" fill="#d29922" filter="url(#nodeGlow)"/>
<circle cx="410.6" cy="703.8" r="6.9" fill="#e3b341" opacity="0.15"/>
<circle cx="408.8" cy="703.2" r="2.3" fill="#ffffff" opacity="0.08"/>
<text x="410.6" y="707.2" font-family="monospace" font-size="7" font-weight="600" fill="#c9d1d9" text-anchor="middle" dy="0.35em">aggregato..</text>
</g>
<g data-module="canopy">
<circle cx="587.2" cy="100.4" r="25.0" fill="#2ea04355" opacity="0.1" filter="url(#softGlow)"/>
<circle cx="588.2" cy="101.4" r="10.0" fill="#000000" opacity="0.3"/>
<circle cx="587.2" cy="100.4" r="10.0" fill="#2ea043" filter="url(#nodeGlow)"/>
<circle cx="587.2" cy="97.4" r="6.0" fill="#56d364" opacity="0.15"/>
<circle cx="585.7" cy="96.9" r="2.0" fill="#ffffff" opacity="0.08"/>
<text x="587.2" y="100.4" font-family="monospace" font-size="7" font-weight="600" fill="#c9d1d9" text-anchor="middle" dy="0.35em">canopy</text>
</g>
<circle cx="500.0" cy="400.0" r="86.8" fill="none" stroke="#da3633" stroke-width="0.5" stroke-dasharray="4 6" opacity="0.3"><animateTransform attributeName="transform" type="rotate" from="0 500.0 400.0" to="360 500.0 400.0" dur="60s" repeatCount="indefinite"/></circle>
<text x="500.0" y="780.0" font-family="monospace" font-size="9" fill="#30363d" text-anchor="middle" dy="0.35em">9 modules | 2944 lines | 78% healthy 22% moderate 0% complex | 12 dead</text>
<text x="985.0" y="790.0" font-family="monospace" font-size="10" fill="#161b22" text-anchor="end" dy="0.35em">canopy-code</text>
</svg>